<svg width="200" height="200" viewBox="0 0 200 200" fill="none" xmlns="http://www.w3.org/2000/svg">
<path fill-rule="evenodd" clip-rule="evenodd" d="M142.659 182.165C141.1 183.592 139.022 184.458 136.753 184.458H14.6836C12.4154 184.458 10.3366 183.592 8.76953 182.165L75.7186 128.949L142.659 182.165Z" fill="#E8F0FE"/>
<path fill-rule="evenodd" clip-rule="evenodd" d="M14.6836 90.3408H136.753C139.088 90.3408 141.224 91.2647 142.799 92.7659L75.7185 151.854L8.6377 92.7659C10.213 91.2647 12.3491 90.3408 14.6836 90.3408Z" fill="#E8F0FE"/>
<path fill-rule="evenodd" clip-rule="evenodd" d="M69.6232 56.2121H61.8698C57.7698 56.2121 54.4463 52.8886 54.4463 48.789V22.9646C54.4463 18.865 57.7698 15.5415 61.8698 15.5415H186.695C190.794 15.5415 194.118 18.865 194.118 22.9646V48.789C194.118 52.8886 190.794 56.2121 186.695 56.2121H95.9196C95.9196 56.2121 83.042 69.0897 77.5816 74.5501C77.0863 75.0454 76.3643 75.2388 75.6875 75.0576C75.011 74.8764 74.4824 74.3478 74.3012 73.6713C72.7345 67.825 69.6232 56.2121 69.6232 56.2121Z" fill="#E8F0FE"/>
<path fill-rule="evenodd" clip-rule="evenodd" d="M6.49845 184.331C4.19061 182.151 2.74512 179.068 2.74512 175.666V99.1416C2.74512 95.5376 4.36198 92.2945 6.90629 90.1012C8.28159 88.9145 9.93021 88.0357 11.7404 87.5725C12.6828 87.3317 13.6686 87.2035 14.6832 87.2035H136.753C137.767 87.2035 138.753 87.3317 139.696 87.5725C141.506 88.0357 143.155 88.9145 144.53 90.1012C147.074 92.2945 148.691 95.5376 148.691 99.1416V175.666C148.691 179.146 147.178 182.293 144.777 184.48C144.33 184.889 143.852 185.264 143.347 185.601C141.456 186.862 139.185 187.596 136.753 187.596H14.6832C11.6047 187.596 8.78355 186.422 6.65688 184.485C6.60237 184.435 6.54943 184.384 6.49845 184.331ZM9.26394 97.4984C9.10512 98.0188 9.01963 98.5706 9.01963 99.1416V175.666C9.01963 176.369 9.14982 177.044 9.38786 177.666L57.1632 139.691L9.26394 97.4984ZM137.222 93.4976C137.067 93.4847 136.911 93.478 136.753 93.478H14.6832C14.5251 93.478 14.369 93.4847 14.2145 93.4976L75.7181 147.673C75.7181 147.673 137.222 93.4976 137.222 93.4976ZM142.046 177.671C142.285 177.047 142.416 176.371 142.416 175.666V99.1416C142.416 98.5706 142.331 98.0188 142.172 97.4984L94.2718 139.692L142.046 177.671ZM14.8734 181.321H136.555L89.489 143.905L77.7918 154.208C76.6063 155.253 74.8294 155.253 73.6443 154.208L61.9463 143.904L14.8734 181.321ZM67.2157 59.3494H61.8698C56.0373 59.3494 51.309 54.6212 51.309 48.789V22.9647C51.309 17.1325 56.0373 12.4043 61.8698 12.4043H186.695C192.527 12.4043 197.255 17.1325 197.255 22.9647V48.789C197.255 54.6212 192.527 59.3494 186.695 59.3494H97.2192L77.3984 79.1702C76.6059 79.9627 75.451 80.2721 74.3683 79.9819C73.2855 79.6917 72.44 78.8463 72.1498 77.7635L67.2157 59.3494ZM72.6534 55.4L76.8039 70.891L93.7016 53.9937C94.2898 53.4055 95.0879 53.0749 95.9196 53.0749H186.695C189.062 53.0749 190.98 51.1561 190.98 48.789V22.9647C190.98 20.5976 189.062 18.6788 186.695 18.6788H61.8698C59.5028 18.6788 57.5835 20.5976 57.5835 22.9647V48.789C57.5835 51.1561 59.5028 53.0749 61.8698 53.0749H69.6232C71.0428 53.0749 72.2859 54.0286 72.6534 55.4ZM92.2875 30.4431V26.6314C92.2875 24.9 93.6933 23.4941 95.4247 23.4941C97.1565 23.4941 98.562 24.9 98.562 26.6314V30.4431L101.863 28.5372C103.363 27.6714 105.283 28.1859 106.149 29.6855C107.015 31.1851 106.5 33.1055 105 33.971L101.699 35.8768L105 37.7827C106.5 38.6486 107.015 40.5686 106.149 42.0682C105.283 43.5678 103.363 44.0823 101.863 43.2165L98.562 41.3106V45.1219C98.562 46.8537 97.1565 48.2592 95.4247 48.2592C93.6933 48.2592 92.2875 46.8537 92.2875 45.1219V41.311L88.9867 43.2165C87.4871 44.0823 85.5671 43.5678 84.7012 42.0682C83.8353 40.5686 84.3498 38.6486 85.8494 37.7827L89.1506 35.8768L85.8494 33.971C84.3498 33.1055 83.8353 31.1851 84.7012 29.6855C85.5671 28.1859 87.4871 27.6714 88.9867 28.5372L92.2875 30.4431ZM150.002 30.4431V26.6314C150.002 24.9 151.407 23.4941 153.139 23.4941C154.871 23.4941 156.276 24.9 156.276 26.6314V30.4431L159.577 28.5372C161.077 27.6714 162.997 28.1859 163.863 29.6855C164.729 31.1851 164.214 33.1055 162.715 33.971L159.414 35.8768L162.715 37.7827C164.214 38.6486 164.729 40.5686 163.863 42.0682C162.997 43.5678 161.077 44.0823 159.577 43.2165L156.276 41.3106V45.1219C156.276 46.8537 154.871 48.2592 153.139 48.2592C151.407 48.2592 150.002 46.8537 150.002 45.1219V41.311L146.701 43.2165C145.202 44.0823 143.281 43.5678 142.415 42.0682C141.55 40.5686 142.064 38.6486 143.564 37.7827L146.865 35.8768L143.564 33.971C142.064 33.1055 141.55 31.1851 142.415 29.6855C143.281 28.1859 145.202 27.6714 146.701 28.5372L150.002 30.4431ZM121.145 30.4431V26.6314C121.145 24.9 122.551 23.4941 124.282 23.4941C126.013 23.4941 127.419 24.9 127.419 26.6314V30.4431L130.72 28.5372C132.22 27.6714 134.14 28.1859 135.006 29.6855C135.871 31.1851 135.357 33.1055 133.858 33.971L130.556 35.8768L133.858 37.7827C135.357 38.6486 135.871 40.5686 135.006 42.0682C134.14 43.5678 132.22 44.0823 130.72 43.2165L127.419 41.3106V45.1219C127.419 46.8537 126.013 48.2592 124.282 48.2592C122.551 48.2592 121.145 46.8537 121.145 45.1219V41.311L117.844 43.2165C116.344 44.0823 114.424 43.5678 113.558 42.0682C112.693 40.5686 113.207 38.6486 114.707 37.7827L118.007 35.8768L114.707 33.971C113.207 33.1055 112.693 31.1851 113.558 29.6855C114.424 28.1859 116.344 27.6714 117.844 28.5372L121.145 30.4431Z" fill="#04196C"/>
</svg>
